:SAMPLES-PER-SECOND 30
:FULLY-SPECIFIED
:DEGREES
526
root  63.7625 37.4841 8.33318 175.627 81.4656 173.291
RightUpLeg  -23.832 12.0625 -15.4503
RightLeg  16.4089 9.42291 2.64013
RightFoot  -0.661758 -1.081 11.5007
RightToes  5.82063e-011 0 -3.6325e-017
Spine  26.5198 -2.65429 -0.380832
Spine1  7.61178 -2.62025 -0.676806
HEad  -25.1808 5.66738 -3.47567
LeftShoulder1  0.983572 -1.08583 -14.545
LeftArm  -29.003 -61.2182 -28.9707
LeftForeArm  5.06242 -21.4193 -4.1776
LeftHand  -0.175366 3.17126 8.58495
RightShoulder  0.385562 -0.905894 7.26897
RightArm  -23.8738 57.1915 35.031
RightForeArm  -11.0221 28.7015 6.7868
RightHand  -0.815098 7.05641 -7.92845
LeftUpLeg  -26.8226 5.27205 -1.7096
LeftLeg  24.5921 -6.22368 -2.76287
LeftFoot  1.26214 -0.369185 3.27169
LeftToes  1.54581e-011 7.46816e-011 -4.69922e-011
527
root  63.8588 37.3922 8.62529 177.213 80.7302 173.618
RightUpLeg  -25.3778 12.9045 -15.9553
RightLeg  17.1076 6.14734 1.81503
RightFoot  -1.13647 -1.12179 12.4826
RightToes  5.82063e-011 0 -3.6325e-017
Spine  27.7025 -2.75673 0.900826
Spine1  7.15544 -2.19932 -1.45731
HEad  -26.1662 5.62225 -3.6517
LeftShoulder1  0.978677 -1.49805 -12.501
LeftArm  -34.2595 -64.0682 -25.6155
LeftForeArm  4.05115 -21.1934 -4.05889
LeftHand  -0.116128 4.02247 8.85315
RightShoulder  0.332941 -0.870634 4.78046
RightArm  -32.5585 59.6313 28.9468
RightForeArm  -11.6092 26.4478 6.30255
RightHand  -0.744068 6.96686 -7.32297
LeftUpLeg  -28.6317 3.91305 -1.21724
LeftLeg  25.4351 -5.68405 -2.59961
LeftFoot  1.07187 -0.341287 3.07398
LeftToes  1.54581e-011 7.46816e-011 -4.69922e-011
528
root  63.917 37.3896 8.86359 179.116 80.9616 174.114
RightUpLeg  -27.156 9.60891 -14.9398
RightLeg  17.6514 9.17012 2.98689
RightFoot  0.250962 -1.0899 10.7005
RightToes  5.82063e-011 0 -3.6325e-017
Spine  28.6385 -2.79256 2.7133
Spine1  7.16551 -1.41703 -2.90415
HEad  -27.9575 5.44093 -3.76906
LeftShoulder1  0.973572 -1.95591 -10.5547
LeftArm  -41.4204 -66.3312 -20.5146
LeftForeArm  2.55145 -20.9883 -3.88893
LeftHand  -0.0406288 5.07759 9.06909
RightShoulder  0.286189 -0.674856 1.99456
RightArm  -41.5309 61.7232 22.0569
RightForeArm  -14.0545 23.2658 5.44544
RightHand  -0.74028 7.2161 -7.14704
LeftUpLeg  -30.1129 3.51481 -0.647367
LeftLeg  25.3886 -5.35406 -2.42464
LeftFoot  1.52626 -0.401006 3.47485
LeftToes  1.54581e-011 7.46816e-011 -4.69922e-011
529
root  64.0063 37.3575 9.15615 -179.535 80.6256 174.552
RightUpLeg  -28.0269 6.13271 -13.7814
RightLeg  18.0847 11.7049 4.02354
RightFoot  0.434055 -1.18997 11.534
RightToes  5.82063e-011 0 -3.6325e-017
Spine  29.4863 -2.91224 3.00722
Spine1  7.62712 -1.48059 -2.73637
HEad  -28.494 6.197 -4.54545
LeftShoulder1  0.898872 -2.05272 -8.72322
LeftArm  -48.7872 -67.744 -13.1077
LeftForeArm  0.0922893 -20.0851 -3.35827
LeftHand  -0.099084 4.043 7.11535
RightShoulder  0.26105 0.108048 -1.37028
RightArm  -47.1096 63.8508 15.6495
RightForeArm  -19.4096 19.1175 2.8583
RightHand  -0.596411 6.93649 -5.95817
LeftUpLeg  -31.1751 3.3175 -0.128748
LeftLeg  25.5924 -5.45971 -2.50336
LeftFoot  1.32936 -0.302343 2.64693
LeftToes  1.54581e-011 7.46816e-011 -4.69922e-011
530
root  64.0678 37.3175 9.38989 -178.905 79.8861 174.1
RightUpLeg  -29.3196 3.74023 -13.1672
RightLeg  18.9911 12.8976 4.68052
RightFoot  0.542125 -1.12737 10.8384
RightToes  5.82063e-011 0 -3.6325e-017
Spine  30.4929 -3.1152 3.36377
Spine1  7.30898 -1.85224 -2.13104
HEad  -29.0424 6.53001 -4.82382
LeftShoulder1  0.877542 -2.43884 -7.16524
LeftArm  -54.7745 -68.2845 -6.3868
LeftForeArm  -3.1558 -19.0463 -2.63324
LeftHand  -0.0825135 4.36375 7.21238
RightShoulder  0.204837 0.493976 -3.96361
RightArm  -48.31 66.3943 9.34496
RightForeArm  -30.373 13.7407 -0.895705
RightHand  -0.533162 6.72218 -5.44406
LeftUpLeg  -32.4077 2.56327 0.146181
LeftLeg  25.5701 -5.39738 -2.47105
LeftFoot  1.20348 -0.208418 1.83025
LeftToes  1.54581e-011 7.46816e-011 -4.69922e-011
